<svg width="925" height="458" viewBox="0 0 925 458" fill="none" xmlns="http://www.w3.org/2000/svg">
<path d="M50.4616 373L26.1009 182.091H64.5064L78.5511 322.29H80.4155L141.317 182.091H179.723L193.643 321.668H195.508L256.037 182.091H294.442L206.57 373H168.661L152.752 235.163H149.893L88.2457 373H50.4616ZM338.366 376.853C320.22 376.853 305.057 372.71 292.876 364.424C280.696 356.055 272.12 344.372 267.148 329.374C262.26 314.294 261.431 296.769 264.663 276.8C267.811 257.245 274.15 240.176 283.679 225.592C293.291 211.009 305.305 199.699 319.723 191.661C334.223 183.624 350.34 179.605 368.072 179.605C386.218 179.605 401.34 183.79 413.438 192.158C425.618 200.527 434.194 212.252 439.165 227.332C444.137 242.413 445.007 259.979 441.776 280.031C438.627 299.42 432.205 316.407 422.511 330.99C412.899 345.491 400.884 356.759 386.467 364.797C372.049 372.834 356.016 376.853 338.366 376.853ZM340.479 345.656C352.411 345.656 362.81 342.508 371.676 336.21C380.625 329.913 387.917 321.544 393.551 311.104C399.186 300.663 403.039 289.229 405.11 276.8C407.016 264.785 406.974 253.806 404.986 243.863C403.08 233.837 398.937 225.799 392.557 219.751C386.177 213.702 377.311 210.678 365.959 210.678C354.027 210.678 343.545 213.868 334.513 220.248C325.565 226.545 318.273 234.955 312.638 245.479C307.087 256.002 303.317 267.478 301.328 279.907C299.422 291.839 299.422 302.818 301.328 312.844C303.234 322.787 307.377 330.741 313.757 336.707C320.137 342.673 329.045 345.656 340.479 345.656ZM477.838 308.245L484.923 262.879H491.51L581.247 182.091H625.743L523.825 274.065H517.984L477.838 308.245ZM432.97 373L475.228 118.455H512.391L470.132 373H432.97ZM553.531 373L500.335 282.268L530.04 256.292L599.145 373H553.531ZM666.715 376.853C647.989 376.853 632.494 372.834 620.231 364.797C608.05 356.677 599.516 345.283 594.627 330.617C589.738 315.868 588.951 298.592 592.266 278.788C595.497 259.233 602.002 241.999 611.779 227.084C621.557 212.169 633.737 200.527 648.32 192.158C662.987 183.79 679.186 179.605 696.918 179.605C707.689 179.605 717.84 181.387 727.369 184.95C736.98 188.513 745.142 194.106 751.854 201.729C758.565 209.352 763.205 219.254 765.774 231.434C768.426 243.531 768.343 258.239 765.526 275.557L763.413 288.732H611.531L615.881 260.891H731.222C732.962 251.113 732.506 242.454 729.854 234.914C727.203 227.291 722.646 221.284 716.183 216.892C709.802 212.5 701.765 210.305 692.07 210.305C682.127 210.305 672.847 212.915 664.229 218.135C655.612 223.355 648.403 230.025 642.603 238.146C636.886 246.183 633.281 254.469 631.79 263.004L627.44 288.483C625.285 302.403 625.658 313.589 628.558 322.041C631.541 330.493 636.761 336.625 644.219 340.436C651.676 344.248 660.998 346.153 672.184 346.153C679.393 346.153 686.063 345.159 692.195 343.17C698.409 341.099 703.919 338.075 708.725 334.097C713.531 330.037 717.55 324.983 720.781 318.934L754.837 325.273C750.279 335.63 743.733 344.703 735.199 352.492C726.664 360.198 716.597 366.205 704.996 370.514C693.479 374.74 680.719 376.853 666.715 376.853Z" fill="white"/>
<path d="M924.266 72.5227L792.022 377.281H758.837L891.081 72.5227H924.266Z" fill="#0EA5E9"/>
</svg>
